<svg width="64" height="64" viewBox="0 0 64 64" fill="none" xmlns="http://www.w3.org/2000/svg">
<circle cx="32" cy="32" r="32" fill="#E7E5E4"/>
<path d="M32.348 25.7376H29.0784C27.9096 25.7376 27.3252 25.7376 26.8788 25.9651C26.4861 26.1652 26.1668 26.4845 25.9667 26.8771C25.7393 27.3236 25.7393 27.908 25.7393 29.0768V34.9203C25.7393 36.0891 25.7393 36.6735 25.9667 37.1199C26.1668 37.5126 26.4861 37.8318 26.8788 38.0319C27.3252 38.2594 27.9096 38.2594 29.0784 38.2594H35.4784C36.1253 38.2594 36.4488 38.2594 36.7142 38.1883C37.4344 37.9953 37.9969 37.4328 38.1899 36.7126C38.261 36.4472 38.261 36.1237 38.261 35.4768M36.8697 29.2159V25.042M34.7827 27.1289H38.9567M30.9566 29.5637C30.9566 30.3321 30.3337 30.955 29.5653 30.955C28.7969 30.955 28.174 30.3321 28.174 29.5637C28.174 28.7953 28.7969 28.1724 29.5653 28.1724C30.3337 28.1724 30.9566 28.7953 30.9566 29.5637ZM34.0802 31.9416L28.1957 37.2911C27.8647 37.592 27.6992 37.7424 27.6846 37.8727C27.6719 37.9857 27.7152 38.0977 27.8006 38.1728C27.8991 38.2594 28.1228 38.2594 28.5701 38.2594H35.0999C36.1011 38.2594 36.6017 38.2594 36.9949 38.0912C37.4884 37.88 37.8817 37.4868 38.0928 36.9932C38.261 36.6001 38.261 36.0995 38.261 35.0983C38.261 34.7615 38.261 34.593 38.2242 34.4362C38.1779 34.2391 38.0892 34.0544 37.9641 33.8951C37.8647 33.7684 37.7331 33.6632 37.4701 33.4527L35.5242 31.896C35.2609 31.6854 35.1293 31.5801 34.9843 31.5429C34.8566 31.5102 34.7221 31.5144 34.5967 31.5552C34.4544 31.6014 34.3296 31.7148 34.0802 31.9416Z" stroke="#26272B" stroke-width="1.2" stroke-linecap="round" stroke-linejoin="round"/>
</svg>
