<svg width="16" height="16" viewBox="0 0 16 16" fill="none" xmlns="http://www.w3.org/2000/svg">
<path d="M14.75 8C14.75 11.7279 11.7279 14.75 8 14.75C7.10214 14.75 6.24523 14.5747 5.46162 14.2565C5.31164 14.1955 5.23666 14.1651 5.17604 14.1515C5.11675 14.1382 5.07286 14.1334 5.0121 14.1333C4.94998 14.1333 4.88231 14.1446 4.74699 14.1672L2.07857 14.6119C1.79914 14.6585 1.65942 14.6818 1.55839 14.6384C1.46996 14.6005 1.3995 14.53 1.36157 14.4416C1.31824 14.3406 1.34152 14.2009 1.3881 13.9214L1.83283 11.253C1.85539 11.1177 1.86666 11.05 1.86666 10.9879C1.86665 10.9271 1.86179 10.8833 1.8485 10.824C1.83491 10.7633 1.80446 10.6884 1.74355 10.5384C1.4253 9.75477 1.25 8.89786 1.25 8C1.25 4.27208 4.27208 1.25 8 1.25C11.7279 1.25 14.75 4.27208 14.75 8Z" stroke="white" stroke-width="1.2" stroke-linecap="round" stroke-linejoin="round"/>
</svg>
