<svg width="100" height="29" viewBox="0 0 100 29" fill="none" xmlns="http://www.w3.org/2000/svg">
<circle cx="14.2" cy="14.2" r="13.2" fill="url(#paint0_radial_2077_128579)"/>
<circle cx="14.2" cy="14.2" r="13.567" stroke="url(#paint1_linear_2077_128579)" stroke-opacity="0.3" stroke-width="0.733966"/>
<path fill-rule="evenodd" clip-rule="evenodd" d="M10.4003 21.7547L10.6201 20.8958H7.41034L7.19043 21.7547H10.4002H10.4003ZM16.1105 12.4364C16.3284 12.4633 16.5076 12.6464 16.5216 12.8686C16.5241 12.9084 16.5214 12.9468 16.5137 12.9834L15.9074 15.3533C15.87 15.4999 15.7991 15.573 15.6958 15.573C15.5926 15.573 15.5375 15.4999 15.531 15.3533L15.5039 13.8046C15.4884 13.565 15.2839 13.37 15.044 13.3633H13.1454C12.903 13.3633 12.6942 13.1684 12.6791 12.9276C12.677 12.8925 12.6789 12.8585 12.6847 12.8262L13.2838 10.4841C13.3178 10.3522 13.386 10.2863 13.4893 10.2863C13.5779 10.2863 13.6278 10.3521 13.6379 10.4841L13.665 12.0013C13.6815 12.2414 13.8902 12.4359 14.132 12.4359L16.1106 12.4364H16.1105ZM12.4871 13.5972L12.5468 16.9799C12.5536 17.1852 12.599 17.3826 12.6831 17.5734C12.7671 17.7638 12.8778 17.9364 13.0154 18.09C13.1532 18.2439 13.3094 18.3685 13.4846 18.4639C13.659 18.559 13.8353 18.6066 14.0124 18.6066H16.0488C16.3588 18.6066 16.6701 18.5298 16.982 18.3761C17.2945 18.2219 17.5824 18.0204 17.8451 17.7714C18.1084 17.5222 18.3362 17.251 18.5294 16.9579C18.7223 16.6646 18.8562 16.3714 18.9314 16.0783L20.4209 10.2563H17.2116L16.6856 12.3119L16.6269 8.92316C16.6108 8.41034 16.4296 8.00706 16.0845 7.71411C15.7384 7.42094 15.101 7.27436 14.1712 7.27436C13.5367 7.27436 12.9932 7.33673 12.5407 7.46137C12.0887 7.58588 11.7041 7.77637 11.3874 8.03307C11.071 8.28953 10.809 8.62267 10.6005 9.03304C10.3921 9.44341 10.2148 9.93439 10.0686 10.5061L8.20079 17.8063H11.4105L12.4872 13.5971L12.4871 13.5972ZM20.5858 9.61026L20.7331 9.03462H17.5238L17.3764 9.61026H20.5857H20.5858ZM20.8985 8.38861L21.0458 7.81297H17.8363L17.6892 8.38861H20.8985ZM21.2112 7.16684L21.3918 6.46094H18.1823L18.0017 7.16684H21.2112ZM10.7854 20.2499L10.9325 19.6744H7.72276L7.57562 20.2499H10.7854ZM11.0978 19.0282L11.2454 18.4526H8.03563L7.88826 19.0282H11.0979H11.0978Z" fill="white"/>
<path d="M16.1045 12.5281L14.132 12.5276C14.132 12.5276 14.132 12.5276 14.132 12.5276C13.8422 12.5276 13.5933 12.296 13.5735 12.0076L13.5731 12.003L13.5733 12.003L13.5462 10.4886C13.5416 10.4322 13.5293 10.4036 13.5198 10.3909C13.5138 10.383 13.5074 10.3781 13.4893 10.3781C13.4591 10.3781 13.4398 10.3868 13.4242 10.4018C13.4065 10.4189 13.3872 10.4507 13.3726 10.5069C13.3726 10.507 13.3726 10.507 13.3726 10.507L12.7744 12.8455C12.7704 12.8694 12.769 12.895 12.7707 12.9219L12.6791 12.9276M16.1045 12.5281L16.4243 12.9627L15.8186 15.3306L15.8185 15.3306C15.802 15.3954 15.7805 15.4334 15.7603 15.4544C15.7426 15.4727 15.723 15.4812 15.6958 15.4812C15.6688 15.4812 15.6583 15.4733 15.6505 15.463C15.639 15.4477 15.6257 15.4146 15.6227 15.3504L15.5956 13.803L15.5957 13.803L15.5954 13.7987C15.5768 13.5113 15.3332 13.2796 15.0466 13.2715L15.0466 13.2715H15.044H13.1454C12.951 13.2715 12.7827 13.1138 12.7707 12.9218L12.6791 12.9276M16.1045 12.5281C16.2777 12.5521 16.4189 12.6994 16.43 12.8743L16.1045 12.5281ZM12.6791 12.9276C12.6942 13.1684 12.903 13.3633 13.1454 13.3633H15.044L12.6847 12.8262C12.6789 12.8585 12.677 12.8925 12.6791 12.9276ZM16.0845 7.71411C16.4296 8.00706 16.6108 8.41034 16.6269 8.92316L16.6796 11.9653L16.7656 11.6294M16.0845 7.71411L17.8451 17.7714M16.0845 7.71411C15.7384 7.42094 15.101 7.27436 14.1712 7.27436M16.0845 7.71411L14.1712 7.27436M16.7656 11.6294L16.7716 11.9761L17.2116 10.2563H20.3262L20.332 10.2335L20.4209 10.2563V10.348H20.3974L18.9314 16.0783C18.8562 16.3714 18.7223 16.6646 18.5294 16.9579C18.3362 17.251 18.1084 17.5222 17.8451 17.7714M16.7656 11.6294L16.7187 8.92157L16.7186 8.92028C16.7018 8.3853 16.5114 7.95619 16.1439 7.64417L16.1438 7.64411C15.7708 7.32817 15.1036 7.18261 14.1712 7.18261C13.5311 7.18261 12.979 7.24549 12.5163 7.37291L12.5163 7.37292C12.054 7.50028 11.6576 7.69601 11.3296 7.96179L11.3296 7.9618C11.002 8.22738 10.7323 8.57115 10.5187 8.99147L10.5187 8.9915C10.3066 9.40926 10.1272 9.90687 9.97971 10.4834C9.97971 10.4834 9.97971 10.4834 9.97971 10.4834L8.11191 17.7835L8.08261 17.898H8.20079H11.4105H11.4818L11.4994 17.829L12.4074 14.2794M16.7656 11.6294L17.1227 10.2335L17.1404 10.1645H17.2116H20.4209H20.5391L20.5098 10.279L19.0203 16.1011L19.0202 16.1011C18.9422 16.4054 18.8037 16.7078 18.6061 17.0083L18.606 17.0083C18.4089 17.3075 18.1764 17.5841 17.9081 17.838L17.8451 17.7714M17.8451 17.7714C17.5824 18.0204 17.2945 18.2219 16.982 18.3761C16.6701 18.5298 16.3588 18.6066 16.0488 18.6066H14.0124C13.8353 18.6066 13.659 18.559 13.4846 18.4639M13.4846 18.4639C13.3094 18.3685 13.1532 18.2439 13.0154 18.09M13.4846 18.4639L13.4408 18.5445L12.4074 14.2794M13.4846 18.4639L13.4407 18.5444C13.2559 18.4439 13.0915 18.3126 12.9471 18.1512M13.0154 18.09C12.8778 17.9364 12.7671 17.7638 12.6831 17.5734C12.599 17.3826 12.5536 17.1852 12.5468 16.9799L12.4932 13.9438L12.4074 14.2794M13.0154 18.09L12.9471 18.1512C12.9471 18.1512 12.9471 18.1512 12.9471 18.1512M13.0154 18.09L12.9471 18.1512M12.4074 14.2794L12.4551 16.9815L12.4551 16.983C12.4623 17.2001 12.5104 17.4091 12.5991 17.6104C12.6869 17.8095 12.8029 17.9903 12.9471 18.1512M14.1712 7.27436C13.5367 7.27436 12.9932 7.33673 12.5407 7.46137M14.1712 7.27436L12.5407 7.46137M12.5407 7.46137C12.0887 7.58588 11.7041 7.77637 11.3874 8.03307L12.5407 7.46137ZM10.4003 21.8465H10.4715L10.4892 21.7775L10.709 20.9186L10.7383 20.8041H10.6201H7.41034H7.33913L7.32147 20.8731L7.10155 21.732L7.07223 21.8465H7.19043H10.4002H10.4003ZM20.5858 9.702H20.6571L20.6747 9.633L20.822 9.05735L20.8513 8.94287H20.7331H17.5238H17.4526L17.4349 9.01186L17.2876 9.58751L17.2583 9.702H17.3764H20.5857H20.5858ZM20.8985 8.48035H20.9697L20.9874 8.41136L21.1347 7.83572L21.164 7.72122H21.0458H17.8363H17.7651L17.7474 7.79025L17.6003 8.36589L17.571 8.48035H17.6892H20.8985ZM21.2112 7.25859H21.2825L21.3001 7.18958L21.4807 6.48367L21.51 6.36919H21.3918H18.1823H18.1111L18.0934 6.4382L17.9128 7.14411L17.8836 7.25859H18.0017H21.2112ZM10.7854 20.3417H10.8566L10.8742 20.2727L11.0214 19.6971L11.0506 19.5826H10.9325H7.72276H7.65152L7.63387 19.6517L7.48673 20.2272L7.45747 20.3417H7.57562H10.7854ZM11.0979 19.0282L11.1866 19.051L11.3342 18.4754L11.3636 18.3609H11.2454H8.03563H7.96441L7.94675 18.4299L7.79938 19.0054L7.77007 19.1199H7.88826H10.9795H11.0978H11.0979V19.0282Z" stroke="url(#paint2_linear_2077_128579)" stroke-opacity="0.3" stroke-width="0.183491"/>
<path d="M34.8572 20.1992H32.7527V7.99024H34.8739L40.6026 16.6417V7.99024H42.707V20.1992H40.6026L34.8572 11.5477V20.1992ZM44.9586 16.0572C44.9586 13.4851 46.8125 11.7147 49.3679 11.7147C51.9232 11.7147 53.7771 13.4851 53.7771 16.0572C53.7771 18.6293 51.9232 20.3996 49.3679 20.3996C46.8125 20.3996 44.9586 18.6293 44.9586 16.0572ZM46.9962 16.0572C46.9962 17.5603 47.9649 18.5791 49.3679 18.5791C50.7708 18.5791 51.7395 17.5603 51.7395 16.0572C51.7395 14.554 50.7708 13.5352 49.3679 13.5352C47.9649 13.5352 46.9962 14.554 46.9962 16.0572ZM57.6568 20.1992L54.3832 11.9486H56.5544L57.9908 15.7399C58.3415 16.7253 58.6255 17.577 58.7257 18.028C58.8426 17.5102 59.1432 16.6417 59.4939 15.7399L60.9971 11.9486H63.1015L59.661 20.1992H57.6568ZM67.8902 20.4163C65.4351 20.4163 63.7148 18.6293 63.7148 16.0739C63.7148 13.4851 65.4017 11.698 67.8234 11.698C70.2953 11.698 71.8653 13.3515 71.8653 15.9236V16.5415L65.6522 16.5582C65.8025 18.0113 66.5708 18.7462 67.9236 18.7462C69.0427 18.7462 69.7775 18.3119 70.0114 17.5269H71.8987C71.5479 19.3307 70.0448 20.4163 67.8902 20.4163ZM67.8401 13.3682C66.6376 13.3682 65.9027 14.0196 65.7023 15.2555H69.8443C69.8443 14.1198 69.0594 13.3682 67.8401 13.3682ZM75.8844 20.1992H73.8635V7.77311H75.8844V20.1992ZM79.0573 20.1992H76.8193L83.0824 7.99024H85.2036L87.5919 20.1992H85.5042L84.9864 17.3432H80.4937L79.0573 20.1992ZM83.4165 11.4976L81.3622 15.5895H84.6691L83.9175 11.4976C83.8674 11.2471 83.8006 10.8295 83.8006 10.5957C83.7171 10.8128 83.5668 11.1803 83.4165 11.4976ZM89.0185 16.5582C89.0185 13.8693 90.9893 11.7314 93.4778 11.7314C94.6136 11.7314 95.5656 12.2659 95.9664 13.0843L96.2837 11.9486H98.1042L96.8683 19.7817C96.4006 22.7546 94.8975 24.241 92.3421 24.241C89.9872 24.241 88.3838 22.8214 88.3671 20.7003H90.3045C90.3713 21.7859 91.1563 22.454 92.3755 22.454C93.7451 22.454 94.6136 21.6523 94.8641 20.1491L95.0812 18.7629C94.4632 19.5813 93.5112 20.0322 92.4089 20.0322C90.4214 20.0322 89.0185 18.5959 89.0185 16.5582ZM91.006 16.3912C91.006 17.577 91.7576 18.362 92.8766 18.362C94.3964 18.362 95.5489 17.076 95.5489 15.3724C95.5489 14.1866 94.8307 13.4517 93.6449 13.4517C92.1584 13.4517 91.006 14.7544 91.006 16.3912Z" fill="#26272B"/>
<defs>
<radialGradient id="paint0_radial_2077_128579" cx="0" cy="0" r="1" gradientUnits="userSpaceOnUse" gradientTransform="translate(12.8345 1.54621) rotate(87.7469) scale(55.574)">
<stop stop-color="#12B76A"/>
<stop offset="1" stop-color="#12B76A" stop-opacity="0"/>
</radialGradient>
<linearGradient id="paint1_linear_2077_128579" x1="24.5779" y1="17.5228" x2="6.82621" y2="5.50621" gradientUnits="userSpaceOnUse">
<stop stop-color="#12B76A"/>
<stop offset="1" stop-color="#12B76A" stop-opacity="0"/>
</linearGradient>
<linearGradient id="paint2_linear_2077_128579" x1="11.3908" y1="13.2637" x2="19.1963" y2="19.8224" gradientUnits="userSpaceOnUse">
<stop stop-color="white" stop-opacity="0"/>
<stop offset="1" stop-color="white"/>
</linearGradient>
</defs>
</svg>
