<svg width="52" height="54" viewBox="0 0 52 54" fill="none" xmlns="http://www.w3.org/2000/svg">
<circle cx="26" cy="26" r="24" fill="url(#paint0_radial_1718_100812)"/>
<circle cx="26" cy="26" r="24.6672" stroke="url(#paint1_linear_1718_100812)" stroke-opacity="0.3" stroke-width="1.33448"/>
<path fill-rule="evenodd" clip-rule="evenodd" d="M19.091 39.7371L19.4906 38.1754H13.6547L13.2549 39.7371H19.0908H19.091ZM29.4731 22.7946C29.8695 22.8435 30.1951 23.1765 30.2207 23.5804C30.2252 23.6529 30.2202 23.7227 30.2062 23.7892L29.104 28.0981C29.036 28.3646 28.9069 28.4975 28.7192 28.4975C28.5316 28.4975 28.4315 28.3646 28.4195 28.0981L28.3702 25.2823C28.342 24.8467 27.9702 24.4921 27.5341 24.4798H24.082C23.6414 24.4798 23.2617 24.1255 23.2343 23.6877C23.2304 23.624 23.2339 23.5622 23.2444 23.5034L24.3337 19.2451C24.3955 19.0052 24.5196 18.8854 24.7073 18.8854C24.8685 18.8854 24.9592 19.005 24.9775 19.2451L25.0268 22.0036C25.0569 22.44 25.4363 22.7937 25.876 22.7937L29.4733 22.7946H29.4731ZM22.8852 24.9052L22.9938 31.0556C23.0061 31.4288 23.0886 31.7878 23.2415 32.1346C23.3942 32.4809 23.5956 32.7947 23.8458 33.0739C24.0962 33.3537 24.3802 33.5803 24.6989 33.7537C25.0159 33.9267 25.3364 34.0133 25.6585 34.0133H29.361C29.9247 34.0133 30.4907 33.8735 31.0577 33.5941C31.6259 33.3138 32.1494 32.9474 32.6269 32.4946C33.1057 32.0416 33.52 31.5485 33.8712 31.0155C34.222 30.4822 34.4654 29.9492 34.6021 29.4164L37.3103 18.8308H31.4752L30.5189 22.5684L30.4121 16.4069C30.3829 15.4745 30.0533 14.7413 29.4259 14.2087C28.7967 13.6756 27.6377 13.4091 25.9473 13.4091C24.7935 13.4091 23.8054 13.5225 22.9826 13.7491C22.1609 13.9755 21.4616 14.3219 20.8857 14.7886C20.3105 15.2549 19.8342 15.8606 19.4549 16.6067C19.0761 17.3528 18.7538 18.2455 18.4879 19.285L15.0919 32.5581H20.9278L22.8854 24.905L22.8852 24.9052ZM37.6102 17.6562L37.8779 16.6096H32.0428L31.7749 17.6562H37.61H37.6102ZM38.1786 15.435L38.4465 14.3884H32.6111L32.3435 15.435H38.1786ZM38.7472 13.2136L39.0756 11.9302H33.2401L32.9118 13.2136H38.7472ZM19.7911 37.0011L20.0586 35.9546H14.2228L13.9552 37.0011H19.7911ZM20.3591 34.7797L20.6275 33.7333H14.7916L14.5237 34.7797H20.3593H20.3591Z" fill="white"/>
<path d="M29.4623 22.9614L25.876 22.9606C25.8759 22.9606 25.8759 22.9606 25.8759 22.9606C25.349 22.9605 24.8965 22.5394 24.8604 22.0151L24.8598 22.0066L24.86 22.0066L24.8109 19.2531C24.8025 19.1506 24.7801 19.0987 24.7628 19.0756C24.7519 19.0612 24.7403 19.0522 24.7073 19.0522C24.6525 19.0522 24.6173 19.0682 24.589 19.0954C24.5567 19.1265 24.5216 19.1842 24.4952 19.2866C24.4952 19.2866 24.4952 19.2867 24.4952 19.2867L23.4076 23.5384C23.4003 23.5819 23.3978 23.6284 23.4008 23.6772C23.4226 24.0263 23.7286 24.313 24.082 24.313H27.5341H27.5388L27.5388 24.3131C28.06 24.3278 28.5028 24.7489 28.5367 25.2715L28.5372 25.2794L28.537 25.2794L28.5863 28.0928C28.5918 28.2095 28.616 28.2697 28.6369 28.2975C28.651 28.3163 28.6701 28.3307 28.7192 28.3307C28.7687 28.3307 28.8043 28.3152 28.8365 28.2819C28.8732 28.2438 28.9123 28.1746 28.9424 28.0569L28.9424 28.0568L30.0437 23.7516L29.4623 22.9614ZM29.4623 22.9614C29.7772 23.0049 30.034 23.2729 30.0542 23.5908L29.4623 22.9614ZM32.7416 32.6158C33.2295 32.1542 33.6521 31.6513 34.0105 31.1073L34.0106 31.1072C34.3699 30.5609 34.6217 30.0111 34.7636 29.4578L34.7637 29.4577L37.4719 18.8721L37.5251 18.664H37.3103H31.4752H31.3457L31.3136 18.7894L30.6642 21.3274L30.5789 16.4041L30.5789 16.4041L30.5789 16.4017C30.5483 15.429 30.2021 14.6488 29.5339 14.0815L29.5337 14.0814C28.8556 13.507 27.6425 13.2423 25.9473 13.2423C24.7834 13.2423 23.7796 13.3566 22.9384 13.5883L22.9383 13.5883C22.0978 13.8199 21.377 14.1758 20.7807 14.659L20.7807 14.659C20.185 15.1419 19.6947 15.7669 19.3062 16.5311L19.3062 16.5312C18.9206 17.2908 18.5944 18.1955 18.3263 19.2437L14.9303 32.5167L14.877 32.7249H15.0919H20.9278H21.0573L21.0894 32.5994L22.7402 26.1455L32.6269 32.4946M32.7416 32.6158L32.6269 32.4946M32.7416 32.6158C32.7416 32.6158 32.7417 32.6157 32.7417 32.6157L32.6269 32.4946M32.7416 32.6158C32.2523 33.0797 31.7151 33.4558 31.1314 33.7437L31.1314 33.7437C30.5443 34.033 29.9532 34.1801 29.361 34.1801H25.6585C25.3053 34.1801 24.9576 34.0849 24.6192 33.9002M32.6269 32.4946C32.1494 32.9474 31.6259 33.3138 31.0577 33.5941C30.4907 33.8735 29.9247 34.0133 29.361 34.0133H25.6585C25.3364 34.0133 25.0159 33.9267 24.6989 33.7537M24.6192 33.9002L24.6989 33.7537M24.6192 33.9002C24.6191 33.9002 24.619 33.9002 24.619 33.9002L24.6989 33.7537M24.6192 33.9002C24.2831 33.7174 23.9842 33.4787 23.7216 33.1852C23.7216 33.1852 23.7215 33.1852 23.7215 33.1852L23.8458 33.0739C24.0962 33.3537 24.3802 33.5803 24.6989 33.7537M19.091 39.9039H19.2205L19.2526 39.7784L19.6522 38.2168L19.7055 38.0086H19.4906H13.6547H13.5252L13.4931 38.134L13.0933 39.6957L13.04 39.9039H13.2549H19.0908H19.091ZM37.6102 17.823H37.7397L37.7718 17.6976L38.0395 16.6509L38.0927 16.4428H37.8779H32.0428H31.9134L31.8812 16.5682L31.6133 17.6148L31.56 17.823H31.7749H37.61H37.6102ZM38.1786 15.6018H38.3081L38.3402 15.4764L38.6081 14.4298L38.6614 14.2216H38.4465H32.6111H32.4815L32.4495 14.3471L32.1819 15.3937L32.1287 15.6018H32.3435H38.1786ZM38.7472 13.3805H38.8768L38.9089 13.255L39.2372 11.9715L39.2904 11.7634H39.0756H33.2401H33.1106L33.0785 11.8888L32.7502 13.1723L32.6969 13.3805H32.9118H38.7472ZM19.7911 37.1679H19.9206L19.9527 37.0424L20.2202 35.996L20.2735 35.7878H20.0586H14.2228H14.0932L14.0611 35.9133L13.7936 36.9597L13.7404 37.1679H13.9552H19.7911ZM20.3593 34.7797L20.5207 34.8211L20.7891 33.7747L20.8425 33.5664H20.6275H14.7916H14.6621L14.63 33.6919L14.3621 34.7383L14.3088 34.9465H14.5237H20.1441H20.3591H20.3593V34.7797Z" stroke="url(#paint2_linear_1718_100812)" stroke-opacity="0.3" stroke-width="0.333621"/>
<g filter="url(#filter0_f_1718_100812)">
<rect x="11.4341" y="29.2849" width="26.3528" height="11.4077" rx="5.70383" transform="rotate(6.75487 11.4341 29.2849)" fill="#12B76A" fill-opacity="0.47"/>
</g>
<defs>
<filter id="filter0_f_1718_100812" x="0.0472822" y="19.2399" width="47.6017" height="34.5182" filterUnits="userSpaceOnUse" color-interpolation-filters="sRGB">
<feFlood flood-opacity="0" result="BackgroundImageFix"/>
<feBlend mode="normal" in="SourceGraphic" in2="BackgroundImageFix" result="shape"/>
<feGaussianBlur stdDeviation="5.33793" result="effect1_foregroundBlur_1718_100812"/>
</filter>
<radialGradient id="paint0_radial_1718_100812" cx="0" cy="0" r="1" gradientUnits="userSpaceOnUse" gradientTransform="translate(23.5172 2.9931) rotate(87.7469) scale(101.044)">
<stop stop-color="#12B76A"/>
<stop offset="1" stop-color="#12B76A" stop-opacity="0"/>
</radialGradient>
<linearGradient id="paint1_linear_1718_100812" x1="44.869" y1="32.0414" x2="12.5931" y2="10.1931" gradientUnits="userSpaceOnUse">
<stop stop-color="#12B76A"/>
<stop offset="1" stop-color="#12B76A" stop-opacity="0"/>
</linearGradient>
<linearGradient id="paint2_linear_1718_100812" x1="20.892" y1="24.2988" x2="35.0838" y2="36.2238" gradientUnits="userSpaceOnUse">
<stop stop-color="white" stop-opacity="0"/>
<stop offset="1" stop-color="white"/>
</linearGradient>
</defs>
</svg>
