<svg width="74" height="74" viewBox="0 0 74 74" fill="none" xmlns="http://www.w3.org/2000/svg">
<circle cx="37" cy="37" r="37" fill="#F5F5F4"/>
<mask id="mask0_2381_110748" style="mask-type:alpha" maskUnits="userSpaceOnUse" x="0" y="0" width="74" height="74">
<circle cx="37" cy="37" r="37" fill="#F5F5F4"/>
</mask>
<g mask="url(#mask0_2381_110748)">
<rect x="13" y="27" width="33" height="52" rx="4" fill="white"/>
<g filter="url(#filter0_dd_2381_110748)">
<rect x="30" y="34" width="33" height="52" rx="4" fill="white"/>
</g>
<rect x="34" y="41" width="25" height="5" rx="2.5" fill="#E7E5E4"/>
<rect x="34" y="49" width="16" height="5" rx="2.5" fill="#E7E5E4"/>
<rect x="34" y="64" width="26" height="5" rx="2.5" fill="#E7E5E4"/>
<rect x="40" y="66" width="14" height="1" rx="0.5" fill="white"/>
<g filter="url(#filter1_d_2381_110748)">
<circle cx="61.5" cy="34.5" r="6.5" fill="#12B76A"/>
</g>
<path d="M59 34.0641C59 32.2385 59.9812 31 61.485 31C62.9889 31 63.9781 32.2385 63.9781 34.0641C63.9781 35.8816 63.0452 37.096 61.485 37.096C59.9249 37.096 59 35.8816 59 34.0641ZM60.0133 34.0641C60.0133 35.4232 60.5602 36.1872 61.485 36.1872C62.4179 36.1872 62.9648 35.4232 62.9648 34.0641C62.9648 32.6728 62.4179 31.9088 61.485 31.9088C60.5602 31.9088 60.0133 32.6728 60.0133 34.0641Z" fill="white"/>
</g>
<defs>
<filter id="filter0_dd_2381_110748" x="17.3245" y="14.0045" width="48.3511" height="72.114" filterUnits="userSpaceOnUse" color-interpolation-filters="sRGB">
<feFlood flood-opacity="0" result="BackgroundImageFix"/>
<feColorMatrix in="SourceAlpha" type="matrix" values="0 0 0 0 0 0 0 0 0 0 0 0 0 0 0 0 0 0 127 0" result="hardAlpha"/>
<feMorphology radius="1.27926" operator="erode" in="SourceAlpha" result="effect1_dropShadow_2381_110748"/>
<feOffset dx="-5" dy="-2.44"/>
<feGaussianBlur stdDeviation="1.91888"/>
<feColorMatrix type="matrix" values="0 0 0 0 0.0627451 0 0 0 0 0.0941176 0 0 0 0 0.156863 0 0 0 0.03 0"/>
<feBlend mode="normal" in2="BackgroundImageFix" result="effect1_dropShadow_2381_110748"/>
<feColorMatrix in="SourceAlpha" type="matrix" values="0 0 0 0 0 0 0 0 0 0 0 0 0 0 0 0 0 0 127 0" result="hardAlpha"/>
<feMorphology radius="2.55851" operator="erode" in="SourceAlpha" result="effect2_dropShadow_2381_110748"/>
<feOffset dx="-5" dy="-12.32"/>
<feGaussianBlur stdDeviation="5.11702"/>
<feColorMatrix type="matrix" values="0 0 0 0 0.0627451 0 0 0 0 0.0941176 0 0 0 0 0.156863 0 0 0 0.04 0"/>
<feBlend mode="normal" in2="effect1_dropShadow_2381_110748" result="effect2_dropShadow_2381_110748"/>
<feBlend mode="normal" in="SourceGraphic" in2="effect2_dropShadow_2381_110748" result="shape"/>
</filter>
<filter id="filter1_d_2381_110748" x="51" y="28" width="21" height="21" filterUnits="userSpaceOnUse" color-interpolation-filters="sRGB">
<feFlood flood-opacity="0" result="BackgroundImageFix"/>
<feColorMatrix in="SourceAlpha" type="matrix" values="0 0 0 0 0 0 0 0 0 0 0 0 0 0 0 0 0 0 127 0" result="hardAlpha"/>
<feOffset dy="4"/>
<feGaussianBlur stdDeviation="2"/>
<feComposite in2="hardAlpha" operator="out"/>
<feColorMatrix type="matrix" values="0 0 0 0 0.0705882 0 0 0 0 0.717647 0 0 0 0 0.415686 0 0 0 0.07 0"/>
<feBlend mode="normal" in2="BackgroundImageFix" result="effect1_dropShadow_2381_110748"/>
<feBlend mode="normal" in="SourceGraphic" in2="effect1_dropShadow_2381_110748" result="shape"/>
</filter>
</defs>
</svg>
